<svg width="34" height="22" viewBox="0 0 34 22" fill="none" xmlns="http://www.w3.org/2000/svg">
<g clip-path="url(#clip0_1243_5874)">
<path d="M0.343018 2.76611C0.343018 1.2503 1.58595 0.0214844 3.11919 0.0214844H30.8809C32.4142 0.0214844 33.6571 1.2503 33.6571 2.76611V19.2339C33.6571 20.7497 32.4142 21.9785 30.8809 21.9785H3.11919C1.58595 21.9785 0.343018 20.7497 0.343018 19.2339V2.76611Z" fill="#CCEFFF"/>
<path d="M20.6437 17.4758H13.3569V4.52905H20.6437V17.4758Z" fill="#6C6BBD"/>
<path d="M13.8237 11C13.8237 8.37369 15.0674 6.03424 17.0044 4.5266C15.5879 3.42414 13.8004 2.76612 11.8576 2.76612C7.25837 2.76612 3.53015 6.4525 3.53015 11C3.53015 15.5475 7.25837 19.2339 11.8576 19.2339C13.8004 19.2339 15.5879 18.5759 17.0044 17.4734C15.0674 15.9658 13.8237 13.6263 13.8237 11Z" fill="#EB001B"/>
<path d="M30.471 11C30.471 15.5475 26.7428 19.2339 22.1435 19.2339C20.2008 19.2339 18.4132 18.5759 16.9962 17.4734C18.9337 15.9658 20.1775 13.6263 20.1775 11C20.1775 8.37369 18.9337 6.03424 16.9962 4.5266C18.4132 3.42414 20.2008 2.76612 22.1435 2.76612C26.7428 2.76612 30.471 6.4525 30.471 11Z" fill="#0099DF"/>
</g>
<defs>
<clipPath id="clip0_1243_5874">
<rect width="33.3141" height="21.957" fill="white" transform="translate(0.343018 0.0214844)"/>
</clipPath>
</defs>
</svg>
