<svg width="36" height="22" viewBox="0 0 36 22" fill="none" xmlns="http://www.w3.org/2000/svg">
<g clip-path="url(#clip0_1243_5865)">
<path d="M0.957642 2.76611C0.957642 1.2503 2.22883 0.0214844 3.79691 0.0214844H32.1896C33.7577 0.0214844 35.0289 1.2503 35.0289 2.76611V19.2339C35.0289 20.7497 33.7577 21.9785 32.1896 21.9785H3.79691C2.22883 21.9785 0.957642 20.7497 0.957642 19.2339V2.76611Z" fill="#CCDEFF"/>
<path d="M8.60292 7.92425C8.24704 7.68775 7.78265 7.56921 7.20975 7.56921H4.99178C4.81615 7.56921 4.71912 7.65412 4.70069 7.82377L3.7997 13.291C3.79034 13.3447 3.80424 13.3938 3.84127 13.4384C3.87809 13.4831 3.9244 13.5054 3.97987 13.5054H5.03339C5.21817 13.5054 5.31973 13.4207 5.33838 13.2508L5.58786 11.7769C5.59697 11.7054 5.62947 11.6474 5.68493 11.6026C5.74035 11.558 5.80967 11.5288 5.89285 11.5154C5.97602 11.5022 6.05445 11.4954 6.12852 11.4954C6.20237 11.4954 6.29012 11.5 6.39194 11.5089C6.49351 11.5178 6.55825 11.5222 6.586 11.5222C7.38072 11.5222 8.00451 11.3057 8.45742 10.8723C8.91011 10.4391 9.13672 9.83838 9.13672 9.06991C9.13672 8.54285 8.95863 8.16099 8.60292 7.92412V7.92425ZM7.45936 9.56588C7.41301 9.8786 7.29301 10.084 7.09895 10.1823C6.90485 10.2807 6.62761 10.3297 6.26724 10.3297L5.80976 10.343L6.04547 8.90918C6.06386 8.811 6.1239 8.76185 6.22563 8.76185H6.4891C6.85858 8.76185 7.12675 8.81334 7.2931 8.9159C7.45936 9.01871 7.51483 9.23542 7.45936 9.56588Z" fill="#003087"/>
<path d="M32.0091 7.56921H30.9834C30.8815 7.56921 30.8215 7.61837 30.8031 7.71671L29.9021 13.2912L29.8882 13.318C29.8882 13.3629 29.9067 13.4051 29.9437 13.4453C29.9805 13.4855 30.0269 13.5056 30.0823 13.5056H30.9973C31.1726 13.5056 31.2697 13.4209 31.2885 13.251L32.1895 7.77032V7.75701C32.1894 7.63188 32.1292 7.56938 32.0091 7.56938V7.56921Z" fill="#009CDE"/>
<path d="M19.6161 9.72806C19.6161 9.68349 19.5976 9.64098 19.5608 9.60088C19.5238 9.5607 19.4822 9.54047 19.4361 9.54047H18.3687C18.2668 9.54047 18.1836 9.58536 18.1191 9.67444L16.6497 11.7649L16.0398 9.75493C15.9933 9.6121 15.8918 9.54047 15.7348 9.54047H14.695C14.6487 9.54047 14.6071 9.56062 14.5704 9.60088C14.5333 9.64098 14.5149 9.68358 14.5149 9.72806C14.5149 9.74604 14.605 10.0095 14.7852 10.5187C14.9653 11.0281 15.1594 11.5775 15.3674 12.1671C15.5753 12.7566 15.6838 13.0695 15.6931 13.1049C14.9353 14.1056 14.5565 14.6416 14.5565 14.713C14.5565 14.8292 14.6165 14.8872 14.7367 14.8872H15.8041C15.9057 14.8872 15.9888 14.8426 16.0537 14.7533L19.5886 9.82181C19.6069 9.80412 19.6161 9.77299 19.6161 9.72802V9.72806Z" fill="#003087"/>
<path d="M29.5563 9.53838H28.5028C28.3733 9.53838 28.295 9.68583 28.2672 9.98069C28.0267 9.62345 27.588 9.44458 26.9502 9.44458C26.2848 9.44458 25.7187 9.68583 25.2521 10.1682C24.7854 10.6507 24.5521 11.2181 24.5521 11.8702C24.5521 12.3974 24.7115 12.8172 25.0303 13.1297C25.3491 13.4426 25.7765 13.5988 26.3127 13.5988C26.5806 13.5988 26.8532 13.5451 27.1305 13.438C27.4077 13.3308 27.6247 13.1879 27.7821 13.0092C27.7821 13.0181 27.7726 13.0582 27.7544 13.1296C27.7357 13.2012 27.7266 13.255 27.7266 13.2904C27.7266 13.4335 27.7865 13.5048 27.9068 13.5048H28.8634C29.0388 13.5048 29.1406 13.4201 29.1682 13.2502L29.7366 9.75276C29.7457 9.6991 29.7319 9.65007 29.695 9.60534C29.6579 9.56078 29.6118 9.53838 29.5563 9.53838ZM27.7474 12.1784C27.5117 12.4017 27.2275 12.5133 26.8948 12.5133C26.6267 12.5133 26.4097 12.442 26.2433 12.2989C26.0768 12.1563 25.9937 11.9598 25.9937 11.7093C25.9937 11.379 26.1092 11.0996 26.3403 10.8718C26.5711 10.644 26.8578 10.5302 27.1998 10.5302C27.4583 10.5302 27.6732 10.6038 27.8443 10.7512C28.0151 10.8986 28.1009 11.1019 28.1009 11.361C28.1008 11.6826 27.983 11.9551 27.7474 12.1784Z" fill="#009CDE"/>
<path d="M13.8084 9.53838H12.7549C12.6253 9.53838 12.5469 9.68583 12.5192 9.98069C12.2697 9.62345 11.8306 9.44458 11.2022 9.44458C10.5368 9.44458 9.97072 9.68583 9.50409 10.1682C9.03733 10.6507 8.80408 11.2181 8.80408 11.8702C8.80408 12.3974 8.96352 12.8172 9.28236 13.1297C9.6012 13.4426 10.0285 13.5988 10.5646 13.5988C10.8232 13.5988 11.0914 13.5451 11.3686 13.438C11.6458 13.3308 11.8676 13.1879 12.034 13.0092C11.9969 13.1163 11.9785 13.2101 11.9785 13.2904C11.9785 13.4335 12.0386 13.5048 12.1587 13.5048H13.1152C13.2907 13.5048 13.3924 13.4201 13.4202 13.2502L13.9885 9.75276C13.9976 9.6991 13.9838 9.65007 13.947 9.60534C13.91 9.56078 13.8638 9.53838 13.8084 9.53838ZM11.9994 12.185C11.7637 12.4041 11.4748 12.5133 11.133 12.5133C10.8649 12.5133 10.65 12.442 10.4884 12.2989C10.3266 12.1563 10.2458 11.9598 10.2458 11.7093C10.2458 11.379 10.3613 11.0996 10.5924 10.8718C10.8233 10.644 11.1098 10.5301 11.4518 10.5301C11.7105 10.5301 11.9253 10.6038 12.0965 10.7512C12.2673 10.8986 12.3529 11.1019 12.3529 11.361C12.3529 11.6916 12.2351 11.9663 11.9994 12.185Z" fill="#003087"/>
<path d="M24.3506 7.92425C23.9947 7.68775 23.5305 7.56921 22.9574 7.56921H20.7533C20.5684 7.56921 20.4667 7.65412 20.4483 7.82377L19.5473 13.291C19.5379 13.3447 19.5518 13.3938 19.5889 13.4384C19.6255 13.4831 19.672 13.5054 19.7274 13.5054H20.8641C20.975 13.5054 21.0489 13.4474 21.0859 13.3312L21.3355 11.7769C21.3447 11.7054 21.377 11.6474 21.4325 11.6026C21.488 11.558 21.5572 11.5288 21.6405 11.5154C21.7236 11.5022 21.802 11.4954 21.8761 11.4954C21.95 11.4954 22.0377 11.5 22.1394 11.5089C22.2411 11.5178 22.306 11.5222 22.3335 11.5222C23.1284 11.5222 23.7521 11.3057 24.205 10.8723C24.6578 10.4391 24.8842 9.83838 24.8842 9.06991C24.8843 8.54285 24.7063 8.16095 24.3506 7.92412V7.92425ZM22.9297 10.1286C22.7264 10.2626 22.4213 10.3296 22.0148 10.3296L21.5712 10.343L21.8068 8.9091C21.8251 8.81096 21.8852 8.76173 21.987 8.76173H22.2364C22.4398 8.76173 22.6015 8.7707 22.7218 8.78852C22.8417 8.80646 22.9574 8.8622 23.0683 8.95596C23.1793 9.0498 23.2347 9.18611 23.2347 9.36469C23.2347 9.74003 23.1329 9.99451 22.9297 10.1286Z" fill="#009CDE"/>
</g>
<defs>
<clipPath id="clip0_1243_5865">
<rect width="34.0712" height="21.957" fill="white" transform="translate(0.957642 0.0214844)"/>
</clipPath>
</defs>
</svg>
