<svg width="34" height="22" viewBox="0 0 34 22" fill="none" xmlns="http://www.w3.org/2000/svg">
<g clip-path="url(#clip0_1243_5857)">
<path d="M0.0289307 2.76611C0.0289307 1.2503 1.27187 0.0214844 2.8051 0.0214844H30.5668C32.1001 0.0214844 33.343 1.2503 33.343 2.76611V19.2339C33.343 20.7497 32.1001 21.9785 30.5668 21.9785H2.8051C1.27187 21.9785 0.0289307 20.7497 0.0289307 19.2339V2.76611Z" fill="#D8E3F3"/>
<path d="M28.7 6.90424H26.9548C26.4271 6.90424 26.0213 7.06474 25.7777 7.58638L22.4496 15.09H24.8037C24.8037 15.09 25.2095 14.0868 25.2907 13.8461C25.5342 13.8461 27.8477 13.8461 28.1724 13.8461C28.2536 14.1269 28.4565 15.0498 28.4565 15.0498H30.5671L28.7 6.90424ZM25.9401 12.1608C26.143 11.6792 26.833 9.87357 26.833 9.87357C26.833 9.91369 27.036 9.39206 27.1171 9.11117L27.2795 9.83344C27.2795 9.83344 27.7259 11.7996 27.8071 12.2009H25.9401V12.1608Z" fill="#3362AB"/>
<path d="M22.6117 12.4035C22.6117 14.0888 21.0694 15.2123 18.6747 15.2123C17.6601 15.2123 16.686 15.0117 16.1583 14.7709L16.483 12.9251L16.7671 13.0455C17.4977 13.3665 17.9848 13.4869 18.8777 13.4869C19.5271 13.4869 20.2171 13.2461 20.2171 12.6844C20.2171 12.3232 19.9329 12.0825 19.04 11.6812C18.1877 11.28 17.0512 10.6379 17.0512 9.47428C17.0512 7.86923 18.6342 6.78583 20.8665 6.78583C21.7188 6.78583 22.4494 6.94633 22.8958 7.14696L22.5711 8.91251L22.4088 8.75201C22.0029 8.5915 21.4753 8.431 20.7041 8.431C19.8518 8.47112 19.4459 8.83226 19.4459 9.15327C19.4459 9.5144 19.9329 9.79529 20.7041 10.1564C22.0029 10.7583 22.6117 11.4405 22.6117 12.4035Z" fill="#3362AB"/>
<path d="M2.80505 6.98582L2.84564 6.82532H6.33615C6.8232 6.82532 7.18849 6.98582 7.31025 7.50746L8.08141 11.1188C7.31025 9.19276 5.52441 7.62784 2.80505 6.98582Z" fill="#F9B50B"/>
<path d="M12.9926 6.90585L9.4615 15.0515H7.06684L5.03748 8.23001C6.49862 9.15291 7.71624 10.5975 8.1627 11.6006L8.40622 12.4433L10.5979 6.86572H12.9926V6.90585Z" fill="#3362AB"/>
<path d="M13.9261 6.86572H16.1584L14.7378 15.0515H12.5055L13.9261 6.86572Z" fill="#3362AB"/>
</g>
<defs>
<clipPath id="clip0_1243_5857">
<rect width="33.3141" height="21.957" fill="white" transform="translate(0.0289307 0.0214844)"/>
</clipPath>
</defs>
</svg>
